#N struct 1244-rectangle float x float c;
#N struct 1244-pixel float x0 float y0;
#N canvas 952 0 958 956 12;
#X obj 5 10 source/internals;
#X obj 980 213 xy;
#X text 977 238 Get mouse coordinates on click and drag;
#X text 977 328 Outlet: event x y;
#X obj 997 425 xy 80 80 1;
#X obj 974 637 unpack s f f;
#X symbolatom 974 660 10 0 0 0 - - - 0;
#X text 977 268 Creation arguments: floats: width height mode;
#X text 977 288 Inlet 0: float: color;
#X text 977 308 Inlet 1: floats: width height mode;
#X floatatom 1064 682 5 0 0 0 - - - 0;
#X obj 997 379 loadbang;
#X obj 997 411 nbx 5 14 -1e+37 1e+37 0 1 empty empty empty 0 -8 0 10 #fcfcfc #000000 #000000 797 256;
#X msg 1135 408 200 200 1;
#X obj 1064 653 / 200;
#X floatatom 1165 683 5 0 0 0 - - - 0;
#X obj 1165 654 / 200;
#X msg 997 396 797;
#X text 1389 284 SOURCE: https://forum.pdpatchrepo.info/topic/10854/xy-abstraction-to-get-mouse-click-and-drag-coordinates-vanilla;
#X text 1032 702 new_location[0];
#X text 1135 700 new_location[1];
#X text 1248 700 < -------- Locations normalized to 0 and 1;
#X text 872 607 corner_0 at (0 \, 0);
#X text 1202 608 corner_1 at (1 \, 0);
#X text 1202 424 corner_2 at (1 \, 1);
#X text 876 423 corner_3 at (0 \, 1);
#X obj 903 651 bng 19 250 50 0 empty empty empty 0 -10 0 12 #fcfcfc #000000 #000000;
#X obj 914 383 bng 19 250 50 0 empty empty empty 0 -10 0 12 #fcfcfc #000000 #000000;
#X obj 1224 368 bng 19 250 50 0 empty empty empty 0 -10 0 12 #fcfcfc #000000 #000000;
#X obj 1247 645 bng 19 250 50 0 empty empty empty 0 -10 0 12 #fcfcfc #000000 #000000;
#X obj 866 699 s trigger_lower_left;
#X obj 826 452 s trigger_upper_left;
#X obj 1257 400 s trigger_upper_right;
#X obj 1294 669 s trigger_lower_right;
#X obj 1072 808 s trigger_x;
#X obj 1178 807 s trigger_y;
#X obj 966 45 openpanel;
#X obj 936 10 bng 19 250 50 0 empty empty empty 0 -10 0 12 #fcfcfc #000000 #000000;
#X connect 4 0 5 0;
#X connect 5 0 6 0;
#X connect 5 1 14 0;
#X connect 5 2 16 0;
#X connect 10 0 34 0;
#X connect 11 0 13 0;
#X connect 11 0 17 0;
#X connect 12 0 4 0;
#X connect 13 0 4 1;
#X connect 14 0 10 0;
#X connect 15 0 35 0;
#X connect 16 0 15 0;
#X connect 17 0 12 0;
#X connect 26 0 30 0;
#X connect 27 0 31 0;
#X connect 28 0 32 0;
#X connect 29 0 33 0;
#X connect 37 0 36 0;
#X coords 0 -1 1 1 810 820 1 0 0;
