#N struct 1244-rectangle float x float c;
#N struct 1244-pixel float x0 float y0;
#N canvas 148 -27 1920 966 12;
#X obj 5 10 source/internals;
#X obj 997 251 xy 80 80 1;
#X obj 993 468 unpack s f f;
#X symbolatom 993 491 10 0 0 0 - - - 0;
#X floatatom 1083 513 5 0 0 0 - - - 0;
#X obj 997 205 loadbang;
#X obj 997 237 nbx 5 14 -1e+37 1e+37 0 1 empty empty empty 0 -8 0 10 #fcfcfc #000000 #000000 797 256;
#X msg 1135 234 200 200 1;
#X obj 1083 484 / 200;
#X floatatom 1184 514 5 0 0 0 - - - 0;
#X obj 1184 485 / 200;
#X msg 997 222 797;
#X text 898 667 SOURCE: https://forum.pdpatchrepo.info/topic/10854/xy-abstraction-to-get-mouse-click-and-drag-coordinates-vanilla;
#X text 1051 533 new_location[0];
#X text 1154 531 new_location[1];
#X text 1267 531 < -------- Locations normalized to 0 and 1;
#X text 872 433 corner_0 at (0 \, 0);
#X text 1202 434 corner_1 at (1 \, 0);
#X text 1202 250 corner_2 at (1 \, 1);
#X text 876 249 corner_3 at (0 \, 1);
#X obj 877 468 bng 30 250 50 0 trigger_lower_left empty empty 0 -10 0 12 #fcfcfc #000000 #000000;
#X obj 878 213 bng 30 250 50 0 trigger_upper_left empty empty 0 -10 0 12 #fcfcfc #000000 #000000;
#X obj 1288 215 bng 30 250 50 0 trigger_upper_right empty empty 0 -10 0 12 #fcfcfc #000000 #000000;
#X obj 1292 469 bng 30 250 50 0 trigger_lower_right empty empty 0 -10 0 12 #fcfcfc #000000 #000000;
#X obj 1091 639 s trigger_x;
#X obj 1197 638 s trigger_y;
#X obj 1647 227 cnv 19 250 250 empty empty empty 20 12 0 12 #e0e0e0 #404040 0;
#X obj 1647 345 cnv 19 250 3 empty empty empty 20 12 0 12 #000000 #404040 0;
#X obj 1649 228 bng 30 250 50 0 trigger_save_embeddings empty empty 0 -10 0 12 #ff0400 #000000 #000000;
#X obj 1648 380 openpanel;
#X obj 1648 349 bng 30 250 50 0 pd\ rec_bang empty empty 0 -10 0 12 #ff0400 #000000 #000000;
#X obj 1648 402 s trigger_load_embeddings;
#X text 1683 351 Load rhythns from pickle;
#X text 1681 230 Save rhythms to pickle;
#X connect 1 0 2 0;
#X connect 2 0 3 0;
#X connect 2 1 8 0;
#X connect 2 2 10 0;
#X connect 4 0 24 0;
#X connect 5 0 7 0;
#X connect 5 0 11 0;
#X connect 6 0 1 0;
#X connect 7 0 1 1;
#X connect 8 0 4 0;
#X connect 9 0 25 0;
#X connect 10 0 9 0;
#X connect 11 0 6 0;
#X connect 29 0 31 0;
#X connect 30 0 29 0;
#X coords 0 -1 1 1 810 820 1 0 0;
