#N struct 1493-rectangle float x float c;
#N struct 1493-pixel float x0 float y0;
#N canvas 715 335 1900 946 12;
#X obj 5 10 source/internals;
#X obj 980 213 xy;
#X text 977 238 Get mouse coordinates on click and drag;
#X text 977 328 Outlet: event x y;
#X obj 997 425 xy 80 80 1;
#X obj 974 637 unpack s f f;
#X symbolatom 974 660 10 0 0 0 - - - 0;
#X text 977 268 Creation arguments: floats: width height mode;
#X text 977 288 Inlet 0: float: color;
#X text 977 308 Inlet 1: floats: width height mode;
#X floatatom 1099 681 5 0 0 0 - - - 0;
#X obj 997 379 loadbang;
#X obj 997 411 nbx 5 14 -1e+37 1e+37 0 1 empty empty empty 0 -8 0 10 #fcfcfc #000000 #000000 797 256;
#X msg 1135 408 200 200 1;
#X obj 1099 652 / 200;
#X floatatom 1200 674 5 0 0 0 - - - 0;
#X obj 1200 653 / 200;
#X msg 997 396 797;
#X text 1389 284 SOURCE: https://forum.pdpatchrepo.info/topic/10854/xy-abstraction-to-get-mouse-click-and-drag-coordinates-vanilla;
#X text 872 607 corner_0 at (0 \, 0);
#X text 1202 608 corner_1 at (1 \, 0);
#X text 1202 424 corner_2 at (1 \, 1);
#X text 876 423 corner_3 at (0 \, 1);
#X obj 1488 724 metro 100;
#X obj 1454 676 loadbang;
#X obj 1299 787 s;
#N canvas 160 160 450 300 send_test 0;
#X obj 83 113 metro 100;
#X obj 131 186 pack;
#X floatatom 210 183 5 0 0 0 - - - 0;
#X floatatom 265 124 7 0 0 0 - - - 0;
#X obj 84 70 loadbang;
#X obj 134 235 send t;
#X floatatom 359 266 5 0 0 0 - - - 0;
#X obj 60 28 bng 19 250 50 0 empty empty empty 0 -10 0 12 #fcfcfc #000000 #000000;
#X obj 361 198 receive t;
#X obj 365 229 unpack;
#X connect 0 0 1 0;
#X connect 1 0 5 0;
#X connect 2 0 1 1;
#X connect 3 0 2 0;
#X connect 4 0 0 0;
#X connect 7 0 0 0;
#X connect 8 0 9 0;
#X connect 9 1 6 0;
#X restore 946 805 pd send_test;
#X connect 4 0 5 0;
#X connect 5 0 6 0;
#X connect 5 1 14 0;
#X connect 5 2 16 0;
#X connect 11 0 13 0;
#X connect 11 0 17 0;
#X connect 12 0 4 0;
#X connect 13 0 4 1;
#X connect 14 0 10 0;
#X connect 16 0 15 0;
#X connect 17 0 12 0;
#X connect 24 0 23 0;
#X coords 0 -1 1 1 810 820 1 0 0;
